<svg xmlns="http://www.w3.org/2000/svg" viewBox="0 0 512 512" width="512" height="512">
  <!-- Background -->
  <rect width="512" height="512" fill="#0F380F" rx="64" ry="64" />

  <!-- Game Boy-inspired border -->
  <rect x="32" y="32" width="448" height="448" fill="none" stroke="#8BAC0F" stroke-width="8" rx="32" ry="32" />

  <!-- Waveform pattern (representing chiptune music) -->
  <path d="M64 256 L128 192 L192 320 L256 192 L320 320 L384 192 L448 256" fill="none" stroke="#8BAC0F" stroke-width="12" stroke-linecap="round" stroke-linejoin="round" />

  <!-- LSDjs text (using standard font) -->
  <text x="160" y="120" fill="#E0F8D0" font-family="Arial, sans-serif" font-size="72" font-weight="bold">LSDjs</text>

  <!-- Pixel grid overlay effect -->
  <path d="M64,96 L448,96 M64,160 L448,160 M64,224 L448,224 M64,288 L448,288 M64,352 L448,352 M64,416 L448,416 M96,64 L96,448 M160,64 L160,448 M224,64 L224,448 M288,64 L288,448 M352,64 L352,448 M416,64 L416,448" stroke="#306230" stroke-width="1" opacity="0.3" />
</svg>
